<svg xmlns="http://www.w3.org/2000/svg" viewBox="0 0 500 500"><g id="freepik--Floor--inject-3"><ellipse id="freepik--floor--inject-3" cx="250" cy="355.23" rx="223.4" ry="121.49" style="fill:#f5f5f5"></ellipse></g><g id="freepik--Shadows--inject-3"><ellipse id="freepik--Shadow--inject-3" cx="250" cy="329.43" rx="33.66" ry="19.44" style="fill:#e0e0e0"></ellipse><ellipse id="freepik--shadow--inject-3" cx="375.53" cy="370.1" rx="53.21" ry="30.72" style="fill:#e0e0e0"></ellipse><ellipse id="freepik--shadow--inject-3" cx="114.42" cy="373.42" rx="53.21" ry="30.72" style="fill:#e0e0e0"></ellipse></g><g id="freepik--Plants--inject-3"><g id="freepik--plants--inject-3"><path d="M455,348.27l-10.05-4.11a214.38,214.38,0,0,1-2.18-26.22c0-16.42,10.23-36.5,23.21-33.14s-3.66,21.73-6.36,35.92S455,348.27,455,348.27Z" style="fill:#BA68C8"></path><path d="M455,348.27l-10.05-4.11a214.38,214.38,0,0,1-2.18-26.22c0-16.42,10.23-36.5,23.21-33.14s-3.66,21.73-6.36,35.92S455,348.27,455,348.27Z" style="opacity:0.30000000000000004"></path><path d="M450.13,347h0a.42.42,0,0,0,.36-.47c-4.79-36,11.4-56,11.56-56.17a.42.42,0,1,0-.65-.54c-.16.2-16.59,20.44-11.75,56.82A.42.42,0,0,0,450.13,347Z" style="fill:#fff"></path><path d="M460.16,350.67l-5.25-2.38a55.79,55.79,0,0,1,.7-24.41c3.37-12.94,14.59-20.92,20.24-19.6,6.91,1.61,7.58,8,5.56,12.45C479,322,462.38,336.27,460.16,350.67Z" style="fill:#BA68C8"></path><path d="M460.16,350.67l-5.25-2.38a55.79,55.79,0,0,1,.7-24.41c3.37-12.94,14.59-20.92,20.24-19.6,6.91,1.61,7.58,8,5.56,12.45C479,322,462.38,336.27,460.16,350.67Z" style="opacity:0.1"></path><path d="M457.43,349.84h0a.43.43,0,0,0,.38-.47c-2.36-22.84,17.57-40.4,17.78-40.57a.44.44,0,0,0,0-.6.42.42,0,0,0-.6,0c-.21.18-20.46,18-18.07,41.3A.44.44,0,0,0,457.43,349.84Z" style="fill:#fff"></path></g><g id="freepik--plants--inject-3"><path d="M56,339.07l6.9-3.94s3.3-18.21.83-33.87c-3.48-22-18.47-29.61-23.91-27.42s-6.72,8.71,3.11,21.43C48.73,302.77,56.19,318.64,56,339.07Z" style="fill:#BA68C8"></path><g style="opacity:0.15"><path d="M56,339.07l6.9-3.94s3.3-18.21.83-33.87c-3.48-22-18.47-29.61-23.91-27.42s-6.72,8.71,3.11,21.43C48.73,302.77,56.19,318.64,56,339.07Z"></path></g><path d="M58.5,330.33h-.07a.48.48,0,0,1-.41-.55c2.84-20.61-5.44-43.19-14.76-52.29a.5.5,0,1,1,.69-.71C53.43,286,61.88,309,59,329.9A.5.5,0,0,1,58.5,330.33Z" style="fill:#fff"></path><path d="M36.88,350.12c-1.09.62-3.33-.74-4.19-1.32a10.52,10.52,0,0,1-3.46-4,9.73,9.73,0,0,1-.86-5.85,22.65,22.65,0,0,1,.74-3.11l.87-3a7.75,7.75,0,0,0,.44-3c-.26-2.07-2.1-3.51-3.76-4.76-1.85-1.38-3.76-3.2-3.75-5.69a8.66,8.66,0,0,1,2.19-5.2c1.18-1.51,2.59-2.84,3.67-4.43A6.07,6.07,0,0,0,30,305.87a6.37,6.37,0,0,0-.84-2.41,33.46,33.46,0,0,1-2.64-4.84c-.61-1.74-.52-3.9.84-5.15a5.67,5.67,0,0,1,4.27-1.06,9.74,9.74,0,0,1,4,1.4c3.95,2.19,6.2,6.87,10.39,8.56a41,41,0,0,0,5.06,1.23,6.24,6.24,0,0,1,4.18,2.87c1.54,3.07-1.31,6.85-.23,10.11,1,2.88,3.76,4,5.33,6.59a6.14,6.14,0,0,1,.74,3.77,18.26,18.26,0,0,1-1.59,6.38A45.34,45.34,0,0,1,56,339.07C55.94,339.14,37.05,350,36.88,350.12Z" style="fill:#BA68C8"></path><path d="M48.07,344.16h0a.5.5,0,0,1-.48-.52c.81-19.5-8.38-41-15.06-47.3a.49.49,0,0,1,0-.69.5.5,0,0,1,.7,0C40,302,49.39,323.9,48.56,343.69A.49.49,0,0,1,48.07,344.16Z" style="fill:#fff"></path><path d="M45.15,321.11l-.15,0a66.53,66.53,0,0,0-14.15-2.29.49.49,0,1,1,0-1,67.36,67.36,0,0,1,14.4,2.33.49.49,0,0,1,.33.61A.5.5,0,0,1,45.15,321.11Z" style="fill:#fff"></path></g></g><g id="freepik--question-mark--inject-3"><g id="freepik--big-question-mark--inject-3"><path d="M272.44,219.65c-2.85-1.63-14.85-8.57-18.93-10.93-.81-.46-1.32-.76-1.36-.79a9.58,9.58,0,0,0-6.67-1,17.39,17.39,0,0,0-5.52,2.15c-.28.16-.56.35-.83.53-4.61,2.91-8.57,7.49-11.87,13.79a42.75,42.75,0,0,0-5.25,20q0,9.94,5.3,13.95a10.7,10.7,0,0,0,1.12.73c3.31,1.88,19.91,11.5,20.28,11.71l.09,0a9.33,9.33,0,0,1-1.17-.76q-5.31-4-5.3-13.94a42.75,42.75,0,0,1,5.25-20q5.23-10,12.69-14.33,7.1-4.1,12.26-1.07Z" style="fill:#BA68C8"></path><path d="M272.53,219.71q-5.16-3-12.26,1.06-6.93,4-11.95,13L228,222c3.14-5.61,6.85-9.74,11.12-12.43.27-.17.55-.37.83-.53a17.12,17.12,0,0,1,5.52-2.14,9.52,9.52,0,0,1,6.67,1l1.36.79c4.08,2.35,16.08,9.29,18.93,10.92Z" style="opacity:0.4"></path><path d="M248.8,269.76l-.09,0c-.37-.21-17-9.83-20.28-11.71a10.7,10.7,0,0,1-1.12-.73q-5.3-4-5.3-13.94a42.69,42.69,0,0,1,5.25-20c.24-.47.49-.93.75-1.37l20.31,11.73c-.25.44-.5.9-.74,1.36a42.75,42.75,0,0,0-5.25,20q0,9.94,5.3,13.94A9.33,9.33,0,0,0,248.8,269.76Z" style="opacity:0.30000000000000004"></path><path d="M263.58,48.05q14.79-8.55,25.18-7.27a21,21,0,0,1,8,2.66,2.12,2.12,0,0,1-.2-.12c-2.38-1.34-16.72-9.61-20-11.54a20.91,20.91,0,0,0-8.16-2.72q-10.4-1.27-25.19,7.26-23,13.27-37,39t-13.85,52.53l20.31,11.73q-.21-26.82,13.85-52.54T263.58,48.05Z" style="fill:#BA68C8"></path><path d="M296.6,43.33a21.41,21.41,0,0,0-7.84-2.55q-10.38-1.28-25.18,7.27-23,13.26-37,39c-.39.71-.77,1.43-1.14,2.14L205.08,77.44c.37-.71.75-1.43,1.14-2.14q14.06-25.71,37-39,14.81-8.54,25.19-7.26a20.92,20.92,0,0,1,8.16,2.73C279.88,33.72,294.22,42,296.6,43.33Z" style="opacity:0.2"></path><path d="M225.39,89.17q-12.91,24.69-12.71,50.39l-20.31-11.73q-.19-25.71,12.71-50.39Z" style="opacity:0.30000000000000004"></path><path d="M277.38,81.29q-5.53-2.94-14.77,2.3a36.82,36.82,0,0,1-2.24,10.72q-2.31,6.22-13.44,25.66-11.53,20.1-16.68,38.39a136.14,136.14,0,0,0-5.14,37l.1,6.23,13.86,8,6.46,3.73-.11-6.24V207a136.61,136.61,0,0,1,5.14-36.88q5.15-18.29,16.69-38.38,11.12-19.44,13.43-25.67A36.52,36.52,0,0,0,283,93.23Q283,84.28,277.38,81.29Z" style="fill:#BA68C8"></path><path d="M278.69,110.56q-3.44,7.16-11.44,21.14-11.55,20.1-16.69,38.39A136.54,136.54,0,0,0,245.42,207v.16l.11,6.24-6.46-3.72-13.86-8-.1-6.24a136.2,136.2,0,0,1,5.14-37q5.15-18.29,16.68-38.39,8-14,11.46-21.13Z" style="opacity:0.30000000000000004"></path><path d="M283,93.23a36.52,36.52,0,0,1-2.31,12.8c-.43,1.17-1.1,2.68-2,4.53l-20.3-11.72q1.33-2.78,2-4.53a36.82,36.82,0,0,0,2.24-10.72q9.24-5.24,14.77-2.3T283,93.23Z" style="opacity:0.4"></path><path d="M240.17,123.68l-27.49,15.88q-.21-26.82,13.85-52.54t37-39q14.79-8.55,25.18-7.27t16.63,11.39q6.25,10.11,6.25,25.22a81.52,81.52,0,0,1-2,17.38,130.84,130.84,0,0,1-6.29,20q-2.52,6.36-12.07,23.48-9.13,16.32-11.44,22.21A79.47,79.47,0,0,0,276,174.8a150.73,150.73,0,0,0-2,22.14l-28.43,16.42-.11-6.24a136.2,136.2,0,0,1,5.14-37q5.15-18.29,16.69-38.38,11.12-19.44,13.43-25.67A36.52,36.52,0,0,0,283,93.23q0-9-5.61-11.94t-15.06,2.46q-9.66,5.58-15.85,16.74A48,48,0,0,0,240.17,123.68Z" style="fill:#BA68C8"></path><path d="M260.22,220.83q7.65-4.43,13.06-.55t5.41,13.81a42.9,42.9,0,0,1-5.35,20.09Q268,264.33,260.43,268.7t-12.86.36q-5.3-4-5.3-13.95a42.75,42.75,0,0,1,5.25-20Q252.77,225.13,260.22,220.83Z" style="fill:#BA68C8"></path></g></g></svg>