<svg xmlns="http://www.w3.org/2000/svg" viewBox="0 0 500 500"><g id="freepik--background-simple--inject-4"><path d="M440.3,102.52c-23.62-35.23-63.7-60.28-106.1-60.93s-85.28,25.61-99.56,65.55c-7,19.46-7.19,40.62-11.28,60.88s-13.57,41.35-32.11,50.5c-25.12,12.38-54.9-1.77-82.86-.43C76.74,219.6,48,242.74,36.88,272.39s-5.73,64.25,11.25,91,44.58,45.86,74.69,55.73,101.07,15.61,132.47,11.39h0A181.16,181.16,0,0,0,299,423.29c43.18-12.83,78.33-34.39,107.55-64.7,34.83-36.15,56.55-84.47,61.42-134.43C472,181.94,463.91,137.75,440.3,102.52Z" style="fill:#ebebeb"></path></g><g id="freepik--Floor--inject-4"><path d="M470.77,463.77c0,.15-98.85.26-220.76.26s-220.78-.11-220.78-.26,98.83-.26,220.78-.26S470.77,463.63,470.77,463.77Z" style="fill:#263238"></path></g><g id="freepik--Plant--inject-4"><path d="M92.64,437.8c1-3.68-1.47-7.37-4.17-10s-5.93-5.05-7.34-8.58c-2.28-5.72.78-13.12-3.1-17.89-2.29-2.8-6.39-3.74-8.42-6.74a15.23,15.23,0,0,1-1.83-5.35,54.32,54.32,0,0,0-13.53-25.32,47.22,47.22,0,0,0,5.31,24.4c1.57,3,3.51,5.92,4,9.27.85,5.43-2.19,11-.85,16.36,1.53,6.1,8.38,10.19,8.7,16.47.28,5.31-4.35,10-4,15.28A14.22,14.22,0,0,0,69.8,452c4.1,6.83,10.14,11.53,19.28,11.38l11.2.39Z" style="fill:#7E57C2"></path><g style="opacity:0.30000000000000004"><path d="M92.64,437.8c1-3.68-1.47-7.37-4.17-10s-5.93-5.05-7.34-8.58c-2.28-5.72.78-13.12-3.1-17.89-2.29-2.8-6.39-3.74-8.42-6.74a15.23,15.23,0,0,1-1.83-5.35,54.32,54.32,0,0,0-13.53-25.32,47.22,47.22,0,0,0,5.31,24.4c1.57,3,3.51,5.92,4,9.27.85,5.43-2.19,11-.85,16.36,1.53,6.1,8.38,10.19,8.7,16.47.28,5.31-4.35,10-4,15.28A14.22,14.22,0,0,0,69.8,452c4.1,6.83,10.14,11.53,19.28,11.38l11.2.39Z"></path></g><path d="M102.54,464a9,9,0,0,0,3.09-.06,19.27,19.27,0,0,0,3.63-.92,15.55,15.55,0,0,0,4.5-2.46,6.22,6.22,0,0,0,1.85-2.47,11.67,11.67,0,0,0,.52-3.34,32.52,32.52,0,0,1,.27-3.62,9.79,9.79,0,0,1,1.36-3.6c1.32-2.32,3.52-4.52,4.22-7.67s.22-6.45-.3-9.81-1-7,.26-10.52,3.66-6.67,4.89-10.61.65-8.28.91-12.51a16.5,16.5,0,0,1,1.46-6.22c.9-2,2.16-3.85,3.14-5.93,2-4.22,2.34-9,2.88-13.69.27-2.36.53-4.75.8-7.15a35.54,35.54,0,0,1,1.25-7.17,64.16,64.16,0,0,1,2.68-6.93,24.09,24.09,0,0,0,1.3-3.61,36.45,36.45,0,0,0,.36-3.86,45.81,45.81,0,0,0-.3-7.75c-.3-2.58-.77-5.14-1.05-7.73,0-.16,0-.31,0-.45l-.06-.51-.45.22a17.3,17.3,0,0,0-6,5.09,27.65,27.65,0,0,0-3.71,6.83c-1.87,4.81-2.54,9.85-3.48,14.66s-2.14,9.54-4.6,13.54c-1.23,2-2.72,3.82-4,5.76a15.78,15.78,0,0,0-2.78,6.38c-.67,4.74,1.94,8.9,1.4,13.1a14.49,14.49,0,0,1-2,5.81c-1,1.79-2.21,3.45-3.35,5.11a32.76,32.76,0,0,0-3,5.17,16.27,16.27,0,0,0-1.38,5.61c-.27,3.78.26,7.36,0,10.74a24.75,24.75,0,0,1-2.77,9.21c-1.35,2.75-2.86,5.24-4.12,7.66-.63,1.2-1.22,2.38-1.7,3.57a17.87,17.87,0,0,0-1,3.54,22.2,22.2,0,0,0-.08,6.39,16.11,16.11,0,0,0,3.2,8.15,8.11,8.11,0,0,0,.91,1,4.55,4.55,0,0,0,.73.62c.42.31.64.45.64.45a13.93,13.93,0,0,1-2.17-2.14,16.15,16.15,0,0,1-3-8.1,22.09,22.09,0,0,1,.14-6.3,17,17,0,0,1,1-3.45,36.53,36.53,0,0,1,1.71-3.52c1.27-2.4,2.79-4.88,4.17-7.65a25,25,0,0,0,2.86-9.37c.3-3.45-.22-7.05.06-10.73a16.06,16.06,0,0,1,1.35-5.43,32.62,32.62,0,0,1,3-5.06c1.14-1.66,2.35-3.32,3.39-5.15a15,15,0,0,0,2.14-6.05c.54-4.47-2.05-8.65-1.38-13.06a15.33,15.33,0,0,1,2.69-6.1c1.27-1.91,2.77-3.73,4-5.78,2.55-4.11,3.78-8.93,4.71-13.76s1.62-9.83,3.46-14.55a26.91,26.91,0,0,1,3.61-6.64,16.59,16.59,0,0,1,5.77-4.88l-.51-.29c0,.15,0,.3.05.46.28,2.62.75,5.18,1,7.74a44.36,44.36,0,0,1,.29,7.63,37.37,37.37,0,0,1-.34,3.74,22.5,22.5,0,0,1-1.26,3.49,66.05,66.05,0,0,0-2.7,7,36.3,36.3,0,0,0-1.26,7.28c-.26,2.41-.53,4.8-.79,7.16-.54,4.71-.89,9.41-2.8,13.48-1,2-2.2,3.91-3.13,5.95a17.11,17.11,0,0,0-1.5,6.45c-.25,4.32.31,8.55-.86,12.37s-3.6,7-4.83,10.61-.78,7.43-.24,10.78,1.08,6.65.36,9.62-2.78,5.19-4.12,7.57a10.19,10.19,0,0,0-1.39,3.75,31.48,31.48,0,0,0-.24,3.66,11.2,11.2,0,0,1-.48,3.26,5.89,5.89,0,0,1-1.73,2.35,15.41,15.41,0,0,1-4.39,2.48,19.39,19.39,0,0,1-3.59,1,13.76,13.76,0,0,1-2.27.22C102.81,464,102.54,464,102.54,464Z" style="fill:#263238"></path><path d="M137.92,332.1a1.2,1.2,0,0,0-.11.34l-.24,1c-.22.89-.49,2.22-.91,3.88s-1.45,3.54-2.32,5.85a83.47,83.47,0,0,0-2.66,7.94c-.86,3-1.61,6.3-2.41,9.86a41.47,41.47,0,0,1-3.58,10.93c-.92,1.82-2,3.66-2.77,5.68a26.05,26.05,0,0,0-1.61,6.42,131.08,131.08,0,0,1-2.42,13.55c-2.24,9.17-4.38,17.91-6.33,25.87s-3.79,15.08-5.31,21.1-2.67,10.82-3.51,14.25c-.39,1.64-.7,2.93-.92,3.88-.09.41-.17.74-.23,1a1.85,1.85,0,0,0,0,.35,1.31,1.31,0,0,0,.13-.33c.07-.27.17-.59.29-1,.25-.93.6-2.22,1.05-3.85.9-3.4,2.17-8.23,3.74-14.18s3.4-13.15,5.45-21.06,4.13-16.71,6.39-25.89A124.72,124.72,0,0,0,122,384.1a25.83,25.83,0,0,1,1.56-6.27c.79-2,1.8-3.79,2.72-5.63,2-3.65,2.79-7.57,3.58-11.1s1.49-6.87,2.31-9.85,1.68-5.64,2.54-7.94,1.81-4.2,2.22-5.92.6-3,.78-3.92q.1-.62.18-1C137.92,332.22,137.94,332.1,137.92,332.1Z" style="fill:#263238"></path><path d="M104.52,464.05c7.31-4.35,9.41-17.55,6.36-25.49s-8.39-15.2-9.21-23.67c-.64-6.51,1.5-13.19,0-19.55-2.05-8.59-10.43-15.24-10.33-24.07.05-4.95,2.87-9.61,2.64-14.56-.27-6.06-4.93-10.88-7.81-16.22-4.42-8.19-4.71-17.86-6.22-27s-5-19-13.14-23.51c-1.2,7.79-3.25,13.13-2.61,23.68.24,3.79,4.64,11,5.24,19.35.36,5,.6,9.94.91,14.9s.61,9.76,2.34,14.28c1.33,3.47,3.46,6.62,4.45,10.2,1.85,6.73-.59,14,.91,20.84,1.27,5.78,5.27,10.75,6.09,16.61,1.14,8.23-4.18,16.79-1.46,24.64,1.36,3.9,4.56,7,5.47,11.05.71,3.12-.06,6.43.58,9.56,1,5.06,10.66,9,15.81,8.67" style="fill:#7E57C2"></path><path d="M68.81,297.67a2.37,2.37,0,0,0,0,.44c0,.33.1.75.16,1.28.17,1.13.36,2.78.74,4.92s1.52,4.56,2.4,7.48,1.86,6.26,2.68,10,1.54,7.91,2.27,12.38,1.53,9.34,3.75,14c1,2.33,2.18,4.67,3,7.17a32.35,32.35,0,0,1,1.54,7.9,158.1,158.1,0,0,0,2.15,17c2.24,11.54,4.37,22.53,6.31,32.54s3.89,18.94,5.45,26.5,2.84,13.6,3.73,17.86l1,4.85c.12.52.21.93.29,1.25a2.49,2.49,0,0,0,.12.43,1.83,1.83,0,0,0,0-.44c-.06-.33-.13-.74-.22-1.27-.22-1.16-.53-2.8-.92-4.88-.84-4.27-2-10.37-3.51-17.9s-3.3-16.56-5.29-26.53-4-21-6.25-32.53a159.51,159.51,0,0,1-2.16-17,32.82,32.82,0,0,0-1.59-8.06c-.89-2.54-2.06-4.89-3.09-7.21-2.2-4.59-3-9.38-3.76-13.83s-1.49-8.63-2.36-12.39-1.82-7.12-2.8-10-2.07-5.32-2.51-7.41-.65-3.77-.86-4.88c-.1-.52-.18-.94-.24-1.27A3.39,3.39,0,0,0,68.81,297.67Z" style="fill:#263238"></path></g><g id="freepik--question-mark--inject-4"><path d="M145.07,201.38h57.75s0-48.49,50.39-49.35c26.17-.46,39.74,16.69,45.26,29.82,6.4,15.25,4.46,32.63-4.12,46.78-9.79,16.15-30.89,32.38-69.81,25.52l-.37,128.67h57.11V306.54s80.09-20.7,80.09-109c0-84.45-68.29-102.69-105-103.87-20.42-.65-27.82-1.53-53.08,2.06C171.1,100.33,144.39,137.71,145.07,201.38Z" style="fill:#7E57C2"></path><rect x="224.01" y="409.64" width="57.96" height="54.13" style="fill:#7E57C2"></rect><rect x="224.01" y="409.64" width="57.96" height="54.13" style="opacity:0.1"></rect><path d="M145.07,201.38h57.75s0-48.49,50.39-49.35c26.17-.46,39.74,16.69,45.26,29.82,6.4,15.25,4.46,32.63-4.12,46.78-9.79,16.15-30.89,32.38-69.81,25.52l-.37,128.67h57.11V306.54s80.09-20.7,80.09-109c0-84.45-68.29-102.69-105-103.87-20.42-.65-27.82-1.53-53.08,2.06C171.1,100.33,144.39,137.71,145.07,201.38Z" style="opacity:0.1"></path><path d="M121.14,201.38H178.9s0-48.49,50.39-49.35c26.17-.46,39.74,16.69,45.25,29.82,6.41,15.25,4.47,32.63-4.11,46.78-9.79,16.15-31.26,30.83-70.18,24V382.82h57.11V306.54s80.09-20.7,80.09-109c0-84.45-75.74-104.06-108.15-104.06C204.51,93.51,120.05,99.5,121.14,201.38Z" style="fill:#7E57C2"></path><path d="M121.14,201.38H178.9s0-48.49,50.39-49.35c26.17-.46,39.74,16.69,45.25,29.82,6.41,15.25,4.47,32.63-4.11,46.78-9.79,16.15-31.26,30.83-70.18,24V382.82h57.11V306.54s80.09-20.7,80.09-109c0-84.45-75.74-104.06-108.15-104.06C204.51,93.51,120.05,99.5,121.14,201.38Z" style="opacity:0.30000000000000004"></path><rect x="200.09" y="409.64" width="57.96" height="54.13" style="fill:#7E57C2"></rect><rect x="200.09" y="409.64" width="57.96" height="54.13" style="opacity:0.30000000000000004"></rect><path d="M235.81,152.29a5,5,0,0,1-.86,0c-.57,0-1.39-.19-2.46-.2a49.89,49.89,0,0,0-9.06.38,64.18,64.18,0,0,0-13.07,3.07,55.92,55.92,0,0,0-7.28,3.14,38.48,38.48,0,0,0-7.13,4.61,35.24,35.24,0,0,0-5.83,6.16,60.36,60.36,0,0,0-4.37,6.62,59.19,59.19,0,0,0-5.17,12.38,50.35,50.35,0,0,0-1.74,8.9c-.12,1.06-.15,1.9-.18,2.46a4.55,4.55,0,0,1-.08.86,4.78,4.78,0,0,1,0-.86c0-.57,0-1.41.09-2.48a46,46,0,0,1,1.59-9,57.6,57.6,0,0,1,5.1-12.52,59.89,59.89,0,0,1,4.39-6.69,35,35,0,0,1,5.9-6.25,38.76,38.76,0,0,1,7.22-4.67A56,56,0,0,1,210.2,155a62.82,62.82,0,0,1,13.19-3,46,46,0,0,1,9.11-.21,21.56,21.56,0,0,1,2.46.3A6.21,6.21,0,0,1,235.81,152.29Z" style="fill:#263238"></path><path d="M322.83,142s-.07-.07-.19-.22-.3-.41-.5-.7l-1.91-2.7c-.41-.58-.85-1.25-1.37-1.94l-1.8-2.19L315,131.72c-.75-.88-1.63-1.73-2.51-2.66s-1.78-1.92-2.8-2.87-2.11-1.92-3.23-2.92c-.56-.5-1.11-1-1.71-1.53l-1.86-1.47c-1.27-1-2.53-2-3.9-3a125.71,125.71,0,0,0-18.93-11.18l-5.27-2.38-5.23-2c-1.71-.71-3.45-1.21-5.13-1.77s-3.32-1.13-5-1.52l-4.78-1.25c-1.55-.41-3.09-.66-4.56-1s-2.89-.64-4.28-.81l-4-.58c-2.53-.43-4.85-.52-6.87-.72-1-.08-2-.19-2.83-.23l-2.38-.06-3.3-.11-.86,0-.29,0a.94.94,0,0,1,.29,0l.86,0h3.3l2.39,0c.87,0,1.82.12,2.84.19,2,.17,4.36.24,6.89.65l4,.54c1.39.16,2.81.52,4.29.79s3,.55,4.59,1l4.8,1.24c1.66.38,3.3,1,5,1.51s3.43,1,5.14,1.76l5.26,2,5.3,2.39a122.56,122.56,0,0,1,19,11.26c1.38,1,2.64,2.07,3.91,3.06L305,121.4c.6.5,1.15,1,1.71,1.54l3.22,3c1,1,1.9,2,2.79,2.91s1.74,1.8,2.49,2.69l2,2.55,1.78,2.22c.51.7.94,1.38,1.34,2,.78,1.17,1.39,2.09,1.82,2.75l.47.73A1.15,1.15,0,0,1,322.83,142Z" style="fill:#263238"></path><path d="M316.81,266a3.09,3.09,0,0,1-.43.6L315,268.23c-.57.73-1.29,1.6-2.18,2.57s-1.84,2.11-3,3.29-2.4,2.5-3.81,3.83-2.94,2.73-4.57,4.19a124.88,124.88,0,0,1-23.36,16.11c-1.94,1-3.77,2-5.54,2.77s-3.42,1.56-4.94,2.2-2.92,1.17-4.14,1.64-2.29.85-3.17,1.13l-2,.65a3.49,3.49,0,0,1-.72.2,3.57,3.57,0,0,1,.68-.3l2-.74c.87-.31,1.92-.71,3.13-1.21s2.61-1,4.11-1.71,3.16-1.38,4.89-2.25,3.58-1.79,5.51-2.8c3.81-2.1,7.92-4.56,12.07-7.4s7.88-5.83,11.2-8.65c1.63-1.44,3.19-2.79,4.58-4.15s2.69-2.59,3.84-3.77,2.16-2.27,3.06-3.23,1.64-1.8,2.24-2.5l1.4-1.59A4.54,4.54,0,0,1,316.81,266Z" style="fill:#263238"></path><path d="M256.35,378.28c-.15,0-.27-16.06-.27-35.87s.12-35.88.27-35.88.26,16.06.26,35.88S256.49,378.28,256.35,378.28Z" style="fill:#263238"></path><path d="M258.55,460.1c-.15,0-.26-11.27-.26-25.17s.11-25.18.26-25.18.26,11.27.26,25.18S258.69,460.1,258.55,460.1Z" style="fill:#263238"></path></g></svg>